<svg width="36" height="35" viewBox="0 0 36 35" fill="none" xmlns="http://www.w3.org/2000/svg">
<g clip-path="url(#clip0_99_2758)">
<path d="M35.1502 17.4607C35.1502 25.8813 27.3482 32.7075 17.7252 32.7075C15.9994 32.7098 14.2807 32.4858 12.6132 32.041C11.3412 32.6857 8.42031 33.9229 3.50648 34.7288C3.07086 34.7985 2.73978 34.3455 2.91186 33.9403C3.68291 32.1194 4.37991 29.693 4.58901 27.48C1.92081 24.8009 0.300293 21.2942 0.300293 17.4607C0.300293 9.04009 8.10231 2.21387 17.7252 2.21387C27.3482 2.21387 35.1502 9.04009 35.1502 17.4607ZM11.1909 17.4607C11.1909 16.883 10.9614 16.329 10.5529 15.9205C10.1444 15.512 9.59043 15.2826 9.01276 15.2826C8.43509 15.2826 7.88108 15.512 7.4726 15.9205C7.06412 16.329 6.83464 16.883 6.83464 17.4607C6.83464 18.0384 7.06412 18.5924 7.4726 19.0008C7.88108 19.4093 8.43509 19.6388 9.01276 19.6388C9.59043 19.6388 10.1444 19.4093 10.5529 19.0008C10.9614 18.5924 11.1909 18.0384 11.1909 17.4607ZM19.9033 17.4607C19.9033 16.883 19.6739 16.329 19.2654 15.9205C18.8569 15.512 18.3029 15.2826 17.7252 15.2826C17.1476 15.2826 16.5935 15.512 16.1851 15.9205C15.7766 16.329 15.5471 16.883 15.5471 17.4607C15.5471 18.0384 15.7766 18.5924 16.1851 19.0008C16.5935 19.4093 17.1476 19.6388 17.7252 19.6388C18.3029 19.6388 18.8569 19.4093 19.2654 19.0008C19.6739 18.5924 19.9033 18.0384 19.9033 17.4607ZM26.4377 19.6388C27.0154 19.6388 27.5694 19.4093 27.9779 19.0008C28.3863 18.5924 28.6158 18.0384 28.6158 17.4607C28.6158 16.883 28.3863 16.329 27.9779 15.9205C27.5694 15.512 27.0154 15.2826 26.4377 15.2826C25.86 15.2826 25.306 15.512 24.8975 15.9205C24.4891 16.329 24.2596 16.883 24.2596 17.4607C24.2596 18.0384 24.4891 18.5924 24.8975 19.0008C25.306 19.4093 25.86 19.6388 26.4377 19.6388Z" fill="#9055DD"/>
</g>
<defs>
<clipPath id="clip0_99_2758">
<path d="M0.300293 0.0356445H25.1502C30.673 0.0356445 35.1502 4.5128 35.1502 10.0356V24.8855C35.1502 30.4084 30.673 34.8855 25.1502 34.8855H0.300293V0.0356445Z" fill="white"/>
</clipPath>
</defs>
</svg>
