<svg width="35" height="35" viewBox="0 0 35 35" fill="none" xmlns="http://www.w3.org/2000/svg">
<path d="M6.65389 20.7277C5.78739 20.7277 4.95637 20.3835 4.34365 19.7708C3.73094 19.1581 3.38672 18.327 3.38672 17.4605C3.38672 16.594 3.73094 15.763 4.34365 15.1503C4.95637 14.5376 5.78739 14.1934 6.65389 14.1934C7.5204 14.1934 8.35142 14.5376 8.96414 15.1503C9.57685 15.763 9.92107 16.594 9.92107 17.4605C9.92107 18.327 9.57685 19.1581 8.96414 19.7708C8.35142 20.3835 7.5204 20.7277 6.65389 20.7277ZM17.5445 20.7277C16.678 20.7277 15.847 20.3835 15.2342 19.7708C14.6215 19.1581 14.2773 18.327 14.2773 17.4605C14.2773 16.594 14.6215 15.763 15.2342 15.1503C15.847 14.5376 16.678 14.1934 17.5445 14.1934C18.411 14.1934 19.242 14.5376 19.8547 15.1503C20.4674 15.763 20.8117 16.594 20.8117 17.4605C20.8117 18.327 20.4674 19.1581 19.8547 19.7708C19.242 20.3835 18.411 20.7277 17.5445 20.7277ZM28.4351 20.7277C27.5686 20.7277 26.7375 20.3835 26.1248 19.7708C25.5121 19.1581 25.1679 18.327 25.1679 17.4605C25.1679 16.594 25.5121 15.763 26.1248 15.1503C26.7375 14.5376 27.5686 14.1934 28.4351 14.1934C29.3016 14.1934 30.1326 14.5376 30.7453 15.1503C31.358 15.763 31.7022 16.594 31.7022 17.4605C31.7022 18.327 31.358 19.1581 30.7453 19.7708C30.1326 20.3835 29.3016 20.7277 28.4351 20.7277Z" fill="#9055DD"/>
</svg>
