<svg width="32" height="32" viewBox="0 0 32 32" fill="none" xmlns="http://www.w3.org/2000/svg">
<path fill-rule="evenodd" clip-rule="evenodd" d="M16 1.33334C7.90001 1.33334 1.33334 7.90001 1.33334 16C1.33334 24.1 7.90001 30.6667 16 30.6667C24.1 30.6667 30.6667 24.1 30.6667 16C30.6667 7.90001 24.1 1.33334 16 1.33334ZM22.3573 13.52C22.4744 13.3862 22.5635 13.2303 22.6195 13.0616C22.6754 12.8928 22.697 12.7146 22.683 12.5373C22.6691 12.3601 22.6198 12.1874 22.5381 12.0295C22.4564 11.8716 22.344 11.7316 22.2074 11.6178C22.0708 11.504 21.9129 11.4186 21.7428 11.3668C21.5728 11.3149 21.394 11.2976 21.2172 11.3158C21.0403 11.334 20.8689 11.3874 20.713 11.4729C20.5571 11.5583 20.4198 11.6741 20.3093 11.8133L14.576 18.692L11.6093 15.724C11.3579 15.4811 11.0211 15.3467 10.6715 15.3498C10.3219 15.3528 9.98746 15.493 9.74025 15.7403C9.49304 15.9875 9.35282 16.3219 9.34978 16.6715C9.34674 17.0211 9.48113 17.3579 9.72401 17.6093L13.724 21.6093C13.855 21.7403 14.0119 21.8425 14.1846 21.9094C14.3573 21.9764 14.542 22.0066 14.727 21.9982C14.9121 21.9898 15.0933 21.9429 15.2592 21.8606C15.4251 21.7783 15.5721 21.6623 15.6907 21.52L22.3573 13.52Z" fill="#9055DD"/>
</svg>
